<?xml version="1.0" encoding="UTF-8" standalone="no"?>
<!DOCTYPE svg PUBLIC "-//W3C//DTD SVG 1.1//EN" "http://www.w3.org/Graphics/SVG/1.1/DTD/svg11.dtd">
<svg width="100%" height="100%" viewBox="0 0 500 500" version="1.1" xmlns="http://www.w3.org/2000/svg" xmlns:xlink="http://www.w3.org/1999/xlink" xml:space="preserve" xmlns:serif="http://www.serif.com/" style="fill-rule:evenodd;clip-rule:evenodd;">
    <g transform="matrix(0.850573,0,0,1.01163,37.2684,8.09715)">
        <path d="M-17.953,154.326C-17.953,227.986 -100.435,443.279 249.943,445.197C600.321,447.115 518.263,267.159 518.263,154.326" style="fill:rgb(216,216,216);fill-opacity:0;fill-rule:nonzero;stroke:rgb(94,201,146);stroke-width:24px;"/>
        <path d="M-17.953,154.326C-17.953,87.336 37.386,33.033 105.647,33.033C173.909,33.033 229.249,87.336 229.249,154.326" style="fill:rgb(216,216,216);fill-opacity:0;fill-rule:nonzero;stroke:rgb(94,201,146);stroke-width:24px;"/>
        <path d="M271.061,154.326C271.061,87.336 326.4,33.033 394.661,33.033C462.923,33.033 518.263,87.336 518.263,154.326" style="fill:white;fill-opacity:0;fill-rule:nonzero;stroke:rgb(94,201,146);stroke-width:24px;"/>
        <g transform="matrix(1,0,0,1,-0.0315736,-95.3999)">
            <path d="M332.997,293.866C332.997,353.999 288.834,375.179 250.945,375.179C213.055,375.179 167.274,353.999 167.274,293.866" style="fill:rgb(216,216,216);fill-opacity:0;fill-rule:nonzero;stroke:rgb(94,200,146);stroke-width:24px;"/>
        </g>
        <path d="M42.009,148.945C42.009,113.636 70.049,85.012 104.64,85.012C139.233,85.012 167.274,113.636 167.274,148.945" style="fill:rgb(216,216,216);fill-opacity:0;fill-rule:nonzero;stroke:rgb(94,201,146);stroke-width:24px;"/>
        <path d="M332.997,148.945C332.997,113.636 361.038,85.012 395.63,85.012C430.222,85.012 458.262,113.636 458.262,148.945" style="fill:white;fill-opacity:0;fill-rule:nonzero;stroke:rgb(94,201,146);stroke-width:24px;"/>
        <path d="M271.061,148.945L229.249,148.945" style="fill:none;fill-rule:nonzero;stroke:rgb(94,201,146);stroke-width:24px;stroke-linecap:square;stroke-miterlimit:1;"/>
        <ellipse cx="228.424" cy="182.057" rx="9.444" ry="9.08" style="fill:rgb(94,200,146);stroke:black;stroke-opacity:0;stroke-width:1px;"/>
        <ellipse cx="271.221" cy="182.057" rx="9.444" ry="9.08" style="fill:rgb(94,200,146);stroke:black;stroke-opacity:0;stroke-width:1px;"/>
    </g>
</svg>
