<?xml version="1.0" encoding="utf-8"?>
<svg viewBox="0 0 500 500" width="500" height="500" xmlns="http://www.w3.org/2000/svg" xmlns:bx="https://boxy-svg.com">
  <g style="" transform="matrix(0.850573, 0, 0, 1.011627, 37.268353, 8.097146)">
    <title>FWROG-E</title>
    <path d="M -17.953 154.326 C -17.953 227.986 -100.435 443.279 249.943 445.197 C 600.321 447.115 518.263 267.159 518.263 154.326" style="fill: rgba(216, 216, 216, 0); stroke-width: 24px; stroke: rgb(94, 201, 146);">
      <title>left eyelid</title>
    </path>
    <path d="M -17.953 154.326 C -17.953 87.336 37.386 33.033 105.647 33.033 C 173.909 33.033 229.249 87.336 229.249 154.326" style="fill: rgba(216, 216, 216, 0); stroke-width: 24px; stroke: rgb(94, 201, 146);">
      <title>left eyelid</title>
    </path>
    <path style="fill: rgba(255, 255, 255, 0); stroke-width: 24px; stroke: rgb(94, 201, 146);" d="M 271.061 154.326 C 271.061 87.336 326.4 33.033 394.661 33.033 C 462.923 33.033 518.263 87.336 518.263 154.326">
      <title>right eyelid</title>
    </path>
    <path d="M 332.997 293.866 C 332.997 353.999 288.834 375.179 250.945 375.179 C 213.055 375.179 167.274 353.999 167.274 293.866" style="fill: rgba(216, 216, 216, 0); stroke-width: 24px; stroke: rgb(94, 200, 146);">
      <title>mouth</title>
    </path>
    <path d="M 42.009 148.945 C 42.009 113.636 70.049 85.012 104.64 85.012 C 139.233 85.012 167.274 113.636 167.274 148.945" style="fill: rgba(216, 216, 216, 0); stroke-width: 24px; stroke: rgb(94, 201, 146);">
      <title>left eye</title>
    </path>
    <path d="M 332.997 148.945 C 332.997 113.636 361.038 85.012 395.63 85.012 C 430.222 85.012 458.262 113.636 458.262 148.945" style="fill: rgba(255, 255, 255, 0); stroke-width: 24px; stroke: rgb(94, 201, 146);">
      <title>right eye</title>
    </path>
    <path d="M 271.061 148.945 C 271.061 148.945 229.249 148.945 229.249 148.945" style="fill: rgba(216, 216, 216, 0); stroke-width: 24px; stroke: rgb(94, 201, 146); stroke-linecap: square; stroke-miterlimit: 1;">
      <title>mouth</title>
    </path>
    <ellipse style="fill: rgb(94, 200, 146); stroke: rgba(0, 0, 0, 0);" cx="228.424" cy="182.057" rx="9.444" ry="9.08"/>
    <ellipse style="fill: rgb(94, 200, 146); stroke: rgba(0, 0, 0, 0);" cx="271.221" cy="182.057" rx="9.444" ry="9.08"/>
    <path d="M 330.207 210.245 C 330.208 270.98 286.045 292.372 248.156 292.372 C 210.266 292.372 164.485 270.98 164.484 210.245" style="fill: rgba(216, 216, 216, 0); stroke-width: 24px; stroke: rgb(94, 200, 146);" transform="matrix(-0.999924, -0.0122, 0.012474, -0.999924, 494.834383, 508.427928)" bx:origin="0.51 0.517">
      <title>mouth</title>
    </path>
  </g>
</svg>